<svg xmlns="http://www.w3.org/2000/svg" viewBox="0 0 151.15 149.19"><defs><style>.cls-1,.cls-2{fill:#ff9;}.cls-1,.cls-3{fill-rule:evenodd;}.cls-3{fill:#bfc0c1;}</style></defs><title>logo</title><g id="Camada_2" data-name="Camada 2"><g id="Camada_1-2" data-name="Camada 1"><path class="cls-1" d="M84.82,149c-14-28.92-10.69-54.5,34.33-74.21-46.64-1.47-26.85-42.93-1.92-58.21-2.26-.31-7.43,2.78-9.13,3.91-32.35,21.35-47.52,47.73-47.52,74,0,24.49,8,41.3,20.9,54.25q-2-.11-4-.17C52.78,125.92,51.65,93.87,62.68,64.23L43,59.68V52.79l12.35-7a2.38,2.38,0,0,0,2.24,0L61,43.81a2.28,2.28,0,0,0,.87-3.11h0v0h0l0,0a2.37,2.37,0,0,0-3.18-.81l-3.39,1.92a2.3,2.3,0,0,0-1.16,1.89L41.14,51a1.26,1.26,0,0,0-.63,1.08v7L21.68,54.74c-1.77,4.93,1.06,5.53,7.55,9.33-11.36,34.9,5,63.93,27.4,85.13"/><path class="cls-1" d="M61,43.81a2.28,2.28,0,0,0,.87-3.11h0v0h0l0,0a2.32,2.32,0,0,0-1.19-1q-1.65,3-3.08,6.09l0,0Z"/><path class="cls-1" d="M62.68,64.23,52.08,61.77a94.22,94.22,0,0,0-2.58,22c0,26.79,11.07,50.47,28,64.79C52.78,125.89,51.65,93.86,62.68,64.23Z"/><path class="cls-1" d="M105.05,26.53C77.62,50.24,69.83,97.63,78.6,131.7c-4.7-21.83,4.74-41.23,40.55-56.91C80.58,73.57,87.43,45,105.05,26.53Z"/><ellipse class="cls-2" cx="108.06" cy="54.54" rx="12.57" ry="12.36"/><polygon class="cls-1" points="129.37 1.95 122.47 4.95 116.86 0 117.62 7.38 111.1 11.1 118.47 12.66 120.06 19.91 123.85 13.49 131.35 14.25 126.32 8.73 129.37 1.95"/><path class="cls-1" d="M129.1,2.54a24.79,24.79,0,0,0-10.63,10.11l1.59,7.25,3.79-6.41,7.5.76-5-5.52Z"/><path class="cls-3" d="M71.91,12.66C32.2,12.66,0,44.31,0,83.35c0,29.92,18.91,55.49,45.62,65.81C21,139,3.78,115.18,3.78,87.36c0-37,30.5-67,68.13-67A69,69,0,0,1,97.2,25.15q3.38-2.61,6.9-5A72.62,72.62,0,0,0,71.91,12.66Z"/><path class="cls-3" d="M111.22,24.15c-1.56,1.36-3,2.79-4.45,4.27l-.83.9a66.75,66.75,0,0,1,34.11,58c0,27.83-17.27,51.69-41.84,61.8,26.71-10.32,45.62-35.89,45.62-65.81A70.33,70.33,0,0,0,111.22,24.15Z"/><polygon class="cls-1" points="142.41 21.37 136.86 23.78 132.34 19.8 132.96 25.74 127.72 28.73 133.65 29.98 134.92 35.81 137.97 30.66 144 31.27 139.96 26.83 142.41 21.37"/><path class="cls-1" d="M142.19,21.85A19.94,19.94,0,0,0,133.65,30l1.28,5.83,3-5.16,6,.61-4-4.44Z"/><polygon class="cls-1" points="149.96 43.18 145.83 44.97 142.47 42.01 142.93 46.43 139.02 48.66 143.44 49.59 144.39 53.93 146.66 50.09 151.15 50.54 148.13 47.24 149.96 43.18"/><path class="cls-1" d="M149.8,43.54a14.84,14.84,0,0,0-6.36,6.06l.95,4.34,2.27-3.84,4.49.45-3-3.31Z"/></g></g></svg>