<?xml version="1.0" encoding="utf-8"?>
<!-- Generator: Adobe Illustrator 21.1.0, SVG Export Plug-In . SVG Version: 6.00 Build 0)  -->
<svg version="1.1" id="Camada_1" xmlns="http://www.w3.org/2000/svg" xmlns:xlink="http://www.w3.org/1999/xlink" x="0px" y="0px"
	 viewBox="0 0 151.1 149.2" style="enable-background:new 0 0 151.1 149.2;" xml:space="preserve">
<style type="text/css">
	.st0{fill:#F19724;}
	.st1{fill:#BFC0C1;}
</style>
<title>logo</title>
<g id="Camada_2">
	<g id="Camada_1-2">
		<path class="st0" d="M84.8,149c-14-28.9-10.7-54.5,34.3-74.2c-46.6-1.5-26.8-42.9-1.9-58.2c-2.3-0.3-7.4,2.8-9.1,3.9
			c-32.3,21.4-47.5,47.7-47.5,74c0,24.5,8,41.3,20.9,54.3c-1.3-0.1-2.7-0.1-4-0.2c-24.7-22.7-25.8-54.7-14.8-84.3L43,59.7v-6.9
			l12.3-7c0.7,0.4,1.5,0.4,2.2,0l3.4-2c1.1-0.6,1.5-2,0.9-3.1c0,0,0,0,0,0l0,0l0,0l0,0l0,0c-0.7-1.1-2.1-1.4-3.2-0.8l-3.4,1.9
			c-0.7,0.4-1.1,1.1-1.2,1.9l-13,7.3c-0.4,0.2-0.6,0.6-0.6,1.1v7l-18.8-4.3c-1.8,4.9,1.1,5.5,7.5,9.3c-11.4,34.9,5,63.9,27.4,85.1"
			/>
		<path class="st0" d="M61,43.8c1.1-0.6,1.5-2,0.9-3.1c0,0,0,0,0,0l0,0l0,0l0,0l0,0c-0.3-0.5-0.7-0.8-1.2-1c-1.1,2-2.1,4-3.1,6.1
			l0,0L61,43.8z"/>
		<path class="st0" d="M62.7,64.2l-10.6-2.5c-1.7,7.2-2.6,14.6-2.6,22c0,26.8,11.1,50.5,28,64.8C52.8,125.9,51.7,93.9,62.7,64.2z"/>
		<path class="st0" d="M105.1,26.5C77.6,50.2,69.8,97.6,78.6,131.7c-4.7-21.8,4.7-41.2,40.5-56.9C80.6,73.6,87.4,45,105.1,26.5z"/>
		<ellipse class="st0" cx="108.1" cy="54.5" rx="12.6" ry="12.4"/>
		<polygon class="st0" points="129.4,2 122.5,4.9 116.9,0 117.6,7.4 111.1,11.1 118.5,12.7 120.1,19.9 123.8,13.5 131.4,14.3 
			126.3,8.7 		"/>
		<path class="st0" d="M129.1,2.5c-4.5,2.2-8.2,5.7-10.6,10.1l1.6,7.3l3.8-6.4l7.5,0.8l-5-5.5L129.1,2.5z"/>
		<path class="st1" d="M71.9,12.7C32.2,12.7,0,44.3,0,83.3c0,29.9,18.9,55.5,45.6,65.8C21,139,3.8,115.2,3.8,87.4
			c0-37,30.5-67,68.1-67c8.7,0,17.2,1.6,25.3,4.8c2.3-1.7,4.6-3.4,6.9-5C94.1,15.2,83.1,12.6,71.9,12.7z"/>
		<path class="st1" d="M111.2,24.1c-1.6,1.4-3,2.8-4.4,4.3l-0.8,0.9c21,11.8,34,33.9,34.1,58c0,27.8-17.3,51.7-41.8,61.8
			c26.7-10.3,45.6-35.9,45.6-65.8C143.8,59.3,131.5,37,111.2,24.1z"/>
		<polygon class="st0" points="142.4,21.4 136.9,23.8 132.3,19.8 133,25.7 127.7,28.7 133.6,30 134.9,35.8 138,30.7 144,31.3 
			140,26.8 		"/>
		<path class="st0" d="M142.2,21.9c-3.6,1.8-6.6,4.6-8.5,8.1l1.3,5.8l3-5.2l6,0.6l-4-4.4L142.2,21.9z"/>
		<polygon class="st0" points="150,43.2 145.8,45 142.5,42 142.9,46.4 139,48.7 143.4,49.6 144.4,53.9 146.7,50.1 151.1,50.5 
			148.1,47.2 		"/>
		<path class="st0" d="M149.8,43.5c-2.7,1.3-4.9,3.4-6.4,6.1l0.9,4.3l2.3-3.8l4.5,0.5l-3-3.3L149.8,43.5z"/>
	</g>
</g>
</svg>
