<?xml version="1.0" encoding="utf-8"?>
<!-- Generator: Adobe Illustrator 21.1.0, SVG Export Plug-In . SVG Version: 6.00 Build 0)  -->
<svg version="1.1" id="Camada_1" xmlns="http://www.w3.org/2000/svg" xmlns:xlink="http://www.w3.org/1999/xlink" x="0px" y="0px"
	 viewBox="0 0 1280 1024" style="enable-background:new 0 0 1280 1024;" xml:space="preserve">
<style type="text/css">
	.st0{fill:#FFFF99;stroke:#000000;stroke-width:0.5;stroke-miterlimit:10;}
</style>
<g>
	<g>
		<path class="st0" d="M520.9,332.8c0-80.1,61.8-145.3,137.7-145.3s137.7,65.2,137.7,145.3s-61.8,145.3-137.7,145.3
			C582.7,478.1,520.9,413,520.9,332.8z M409.5,768.8C422.1,635.5,529,531,658.6,531s236.5,104.5,249,237.8H409.5z"/>
		<g>
			<path class="st0" d="M785.8,252.1c-26.8-46.5-75.8-75.4-128-75.4c-9.6,0-19.2,1-28.6,3c-60.1,12.5-108.4,65.6-117.5,129
				c-1.1,7.9-1.7,15.9-1.9,23.8l0,0.4c0.3,65.1,39.6,124.1,97.6,146.7c15.9,6.2,32.8,9.4,50,9.4c44.5,0,87.7-21.2,115.6-56.6
				c19.7-25.1,31.3-55.6,33.5-88.2C808.9,311.5,801.7,279.7,785.8,252.1z M658,467.1c-8.1,0-16.3-0.9-24.2-2.6
				c-51.6-11-91.9-55.5-100.3-110.5c-1-6.7-1.5-13.9-1.5-21.2c0.3-56.5,33.8-107.2,83.2-126.2c13.6-5.2,27.9-7.9,42.6-7.9
				c37.9,0,74.7,18.2,98.5,48.6c33.9,43.3,38.3,107.1,10.6,155.2C743.8,442.3,702.1,467.1,658,467.1C658,467.1,658,467.1,658,467.1z
				"/>
			<path class="st0" d="M918.6,768.2c-5.1-53.2-24.3-103-55.5-144.2c-31.3-41.3-72.7-72.1-119.5-89.1c-27.1-9.9-55.8-14.9-85.1-14.9
				c-22.7,0-45.1,3-66.7,9.1c-47.6,13.2-92.2,41.7-125.7,80.1c-34.1,39.2-56.6,87.2-64.9,138.8c-1.1,6.3-1.9,13-2.6,20.2
				c-0.5,4.7,1.9,8.9,6.2,10.6c1.4,0.7,3,1,4.7,1h436.7c6.7,0,13.5,0.1,20,0.2c6.6,0.1,13.5,0.2,20.3,0.2c7.6,0,14.2-0.1,20.3-0.4
				h0.8c3.1,0,6.2-1.4,8.4-3.8C918,773.7,918.9,771,918.6,768.2z M421.9,757.5c6.3-44,23.5-85.6,50-120.6
				c28.2-37.2,66.9-66,109.1-81.3c24.9-9,51.1-13.6,77.8-13.6c20.6,0,41.1,2.8,60.7,8.3c43.8,12.2,83.5,37.4,114.6,73
				c31.1,35.4,51.9,79.4,60.1,127.4c0.4,2.4,0.8,4.7,1.1,7.2H470.9c-6.7,0-13.5-0.1-20.1-0.2c-6.6-0.1-13.5-0.2-20.3-0.2
				C427.5,757.4,424.6,757.5,421.9,757.5z"/>
		</g>
	</g>
</g>
</svg>
