<?xml version="1.0" encoding="utf-8"?>
<!-- Generator: Adobe Illustrator 21.1.0, SVG Export Plug-In . SVG Version: 6.00 Build 0)  -->
<svg version="1.1" id="Camada_1" xmlns="http://www.w3.org/2000/svg" xmlns:xlink="http://www.w3.org/1999/xlink" x="0px" y="0px"
	 viewBox="0 0 1280 1024" style="enable-background:new 0 0 1280 1024;" xml:space="preserve">
<style type="text/css">
	.st0{fill:#F19724;}
	.st1{fill:#FFFFFF;}
</style>
<g>
	<g>
		<ellipse class="st0" cx="660.5" cy="512" rx="472.5" ry="488.3"/>
		<g>
			<path class="st0" d="M1128,512c-0.1,50.7-7.6,101.2-22.8,149.6c-14.5,46.2-35.9,90.1-63.3,130c-27,39.3-59.9,74.6-97.2,104.2
				c-37.1,29.4-78.9,53.3-123.2,70c-45.7,17.3-94.1,27.1-143,29c-49.2,1.9-98.5-4.1-145.7-17.9c-45.9-13.4-89.5-34.2-129-61
				c-39.2-26.6-74.2-59.3-103.8-96.2c-30.2-37.7-54.7-80.1-72.4-125c-18.3-46.3-29.5-95.4-33.2-145.1
				c-3.8-51.1,0.1-102.6,11.9-152.5c11.2-47.5,29.4-93.2,54.1-135.3c24.2-41.3,54.5-78.9,89.7-111.3c34.9-32,74.5-58.8,117.4-78.9
				c43.7-20.6,90.9-34.2,138.9-39.8c49.1-5.8,99.2-3.7,147.6,6.5c47,9.9,92.3,27.2,133.9,51.2c41.2,23.8,78.6,53.8,110.9,88.8
				c32.5,35.1,59.6,75.2,80.4,118.2c21.5,44.6,36.1,92.4,43.5,141.4C1126.3,462.5,1128,487.2,1128,512c0,6.4,10,6.4,10,0
				c-0.1-51.6-7.7-103.1-23.2-152.3c-14.8-47.2-36.7-92.2-64.7-133c-27.7-40.2-61.2-76.3-99.5-106.5
				c-38.1-30.1-80.5-54.3-125.9-71.5c-46.5-17.6-95.9-27.6-145.5-29.6c-50.2-2-100.8,4.1-149,18.2C483.2,51,438.5,72.2,398.2,99.7
				c-40,27.3-75.9,60.6-106.1,98.5c-30.7,38.5-55.5,81.3-73.7,127.1c-18.8,47.3-30.2,97.5-34,148.3c-3.9,51.9,0.1,104.5,12,155.2
				c11.4,48.7,30.2,95.8,55.6,138.9c24.7,41.9,55.6,80.3,91.4,113.2c35.7,32.7,76.2,60.1,120.1,80.6c44.7,20.9,92.5,34.5,141.4,40.5
				c50.4,6.1,101.9,3.8,151.6-6.7c47.8-10.1,94-27.9,136.3-52.2c41.9-24.2,80.1-54.8,112.9-90.3c33.2-35.9,61-76.8,82.3-120.9
				c21.9-45.4,36.9-94,44.3-143.8c3.7-25.2,5.6-50.6,5.7-76C1138,505.6,1128,505.6,1128,512z"/>
		</g>
	</g>
	<g>
		<path class="st0" d="M520.9,332.8c0-80.1,61.8-145.3,137.7-145.3c75.9,0,137.7,65.2,137.7,145.3s-61.8,145.3-137.7,145.3
			C582.7,478.1,520.9,413,520.9,332.8z M409.5,768.8C422.1,635.5,529,531,658.6,531c129.6,0,236.5,104.5,249,237.8H409.5z"/>
		<g>
			<path class="st1" d="M525.9,332.8c0.3-56.4,33.5-111.2,87.1-131.8c53.2-20.4,113.1-1.9,147.9,42.6c35.9,45.8,40,111.6,11.1,161.9
				c-27.9,48.4-84,76.8-139.5,64.9c-55.6-11.9-96.5-60.1-105-115.5C526.4,347.6,525.9,340.2,525.9,332.8c0-6.4-10-6.4-10,0
				c0.3,60.9,36.3,118.8,93.8,141.2c56.7,22.1,121.5,1.9,158.7-45.4c38.6-49.2,43.4-119.4,12.2-173.5
				c-30.1-52.3-90.5-82.1-150.1-69.6c-59.5,12.4-104.3,64.7-112.8,124c-1.1,7.7-1.7,15.5-1.8,23.3
				C515.9,339.3,525.9,339.3,525.9,332.8z"/>
			<path class="st1" d="M414.5,768.8c4.8-49,22.9-96.2,52.6-135.5c28.4-37.5,67.5-67.3,111.8-83.3c45.5-16.5,95.6-18.5,142.2-5.5
				c45.6,12.7,86.4,39.3,117.5,74.8c32.2,36.6,53.3,82.3,61.5,130.3c1.1,6.4,1.9,12.8,2.5,19.2c1.7-1.7,3.3-3.3,5-5
				c-16.5,0-33,0-49.5,0c-39.6,0-79.3,0-118.9,0c-48,0-95.9,0-143.9,0c-41.5,0-82.9,0-124.4,0c-20.1,0-40.4-0.8-60.5,0
				c-0.3,0-0.6,0-0.9,0c-6.4,0-6.4,10,0,10c16.5,0,33,0,49.5,0c39.6,0,79.3,0,118.9,0c48,0,95.9,0,143.9,0c41.5,0,82.9,0,124.4,0
				c20.1,0,40.4,0.8,60.5,0c0.3,0,0.6,0,0.9,0c2.5,0,5.3-2.3,5-5c-4.9-50.9-23.3-100.2-54.3-141.1c-29.9-39.4-70.2-70.2-116.8-87.1
				c-47.2-17.2-99.7-19.2-148.1-5.7c-47.5,13.2-90.5,41.2-122.8,78.3c-33.3,38.3-55.4,85.7-63.5,135.8c-1.1,6.6-1.9,13.2-2.5,19.8
				C403.9,775.2,413.9,775.2,414.5,768.8z"/>
		</g>
	</g>
</g>
</svg>
